<svg
  xmlns="http://www.w3.org/2000/svg"
  width="320"
  height="320"
  viewBox="0 0 320 320">
  <path
    id="bar_4"
    d="M177.5,216h-120v-12h120V216z"
    display="none"
    fill="none"
    stroke="#F5EBFF"
    stroke-width="5"
    stroke-linecap="square"
    stroke-miterlimit="10" />
  <path
    id="bar_3"
    d="M272.5,180h-160v-12h160V180z"
    display="none"
    fill="none"
    stroke="#F5EBFF"
    stroke-width="5"
    stroke-linecap="square"
    stroke-miterlimit="10" />
  <path
    id="bar_2"
    d="M222.5,144h-160v-12h160V144z"
    display="none"
    fill="none"
    stroke="#F5EBFF"
    stroke-width="5"
    stroke-linecap="square"
    stroke-miterlimit="10" />
  <path
    id="bar_1"
    d="M262.5,108h-160V96h160V108z"
    display="none"
    fill="none"
    stroke="#F5EBFF"
    stroke-width="5"
    stroke-linecap="square"
    stroke-miterlimit="10" />
  <path
    id="marker"
    d="M160,74v164"
    display="none"
    fill="none"
    stroke="#F5EBFF"
    stroke-width="4"
    stroke-linecap="square"
    stroke-miterlimit="10" />
  <path
    id="garden"
    d="M219.4,159.8c0,16.2,13.1,29.4,29.4,29.4c16.2,0,29.4-13.1,29.4-29.4c0-16.2-13.1-29.4-29.4-29.4v-17.6h-46.9v46.9L219.4,159.8	L219.4,159.8z"
    display="none"
    fill="none"
    stroke="#F5EBFF"
    stroke-width="5"
    stroke-linecap="square"
    stroke-miterlimit="10" />
  <path
    id="hall"
    d="M100.6,132.2c0-16.2-13.1-29.4-29.4-29.4c-16.2,0-29.4,13.1-29.4,29.4c0,16.2,13.1,29.4,29.4,29.4v17.6h46.9v-46.9L100.6,132.2	L100.6,132.2z"
    display="none"
    fill="none"
    stroke="#F5EBFF"
    stroke-width="5"
    stroke-linecap="square"
    stroke-miterlimit="10" />
  <path
    id="stage"
    d="M160,161l35,60h-70L160,161z"
    display="none"
    fill="none"
    stroke="#F5EBFF"
    stroke-width="5"
    stroke-linecap="square"
    stroke-miterlimit="10" />
  <path
    id="sound"
    d="M177.6,128.6h-35.2V93.4h35.2V128.6z"
    display="none"
    fill="#F5EBFF" />
  <path
    id="lobby"
    d="M177.6,128.6h-35.2V93.4h35.2V128.6z"
    display="none"
    fill="none"
    stroke="#F5EBFF"
    stroke-width="5"
    stroke-linecap="square"
    stroke-miterlimit="10" />
</svg>
