<svg
  xmlns="http://www.w3.org/2000/svg"
  width="320"
  height="320"
  viewBox="0 0 320 320">
  <path
    id="bar_4"
    d="M177.5,221.5h-120v-15h120V221.5z"
    display="none"
    fill="none"
    stroke="#efe0ff"
    stroke-width="5"
    stroke-linecap="square"
    stroke-miterlimit="10" />
  <path
    id="bar_3"
    d="M262.5,185.5h-140v-15h140V185.5z"
    display="none"
    fill="none"
    stroke="#efe0ff"
    stroke-width="5"
    stroke-linecap="square"
    stroke-miterlimit="10" />
  <path
    id="bar_2"
    d="M212.5,149.5h-140v-15h140V149.5z"
    display="none"
    fill="none"
    stroke="#efe0ff"
    stroke-width="5"
    stroke-linecap="square"
    stroke-miterlimit="10" />
  <path
    id="bar_1"
    d="M262.5,113.5h-160v-15h160V113.5z"
    display="none"
    fill="none"
    stroke="#efe0ff"
    stroke-width="5"
    stroke-linecap="square"
    stroke-miterlimit="10" />
  <path
    id="marker"
    d="M160,60v200"
    display="none"
    fill="none"
    stroke="#efe0ff"
    stroke-width="4"
    stroke-linecap="square"
    stroke-miterlimit="10" />
  <path
    id="garden"
    d="M219.4,163.8c0,16.2,13.1,29.4,29.4,29.4c16.2,0,29.4-13.1,29.4-29.4c0-16.2-13.1-29.4-29.4-29.4v-17.6h-46.9v46.9L219.4,163.8	L219.4,163.8z"
    display="none"
    fill="none"
    stroke="#efe0ff"
    stroke-width="5"
    stroke-linecap="square"
    stroke-miterlimit="10" />
  <path
    id="hall"
    d="M100.6,136.2c0-16.2-13.1-29.4-29.4-29.4c-16.2,0-29.4,13.1-29.4,29.4c0,16.2,13.1,29.4,29.4,29.4v17.6h46.9v-46.9L100.6,136.2	L100.6,136.2z"
    display="none"
    fill="none"
    stroke="#efe0ff"
    stroke-width="5"
    stroke-linecap="square"
    stroke-miterlimit="10" />
  <path
    id="stage"
    d="M160,165l35,60h-70L160,165z"
    display="none"
    fill="none"
    stroke="#efe0ff"
    stroke-width="5"
    stroke-linecap="square"
    stroke-miterlimit="10" />
  <path
    id="sound"
    d="M177.6,132.6h-35.2V97.4h35.2V132.6z"
    display="none"
    fill="#efe0ff" />
  <path
    id="lobby"
    d="M177.6,132.6h-35.2V97.4h35.2V132.6z"
    display="none"
    fill="none"
    stroke="#efe0ff"
    stroke-width="5"
    stroke-linecap="square"
    stroke-miterlimit="10" />
</svg>
