<svg
  xmlns="http://www.w3.org/2000/svg"
  width="320"
  height="320"
  viewBox="0 0 320 320">
  <path id="bar_4" class="st0" d="M177.5,216h-120v-12h120V216z" />
  <path id="bar_3" class="st0" d="M272.5,180h-160v-12h160V180z" />
  <path id="bar_2" class="st0" d="M222.5,144h-160v-12h160V144z" />
  <path id="bar_1" class="st0" d="M262.5,108h-160V96h160V108z" />
  <path id="marker" class="st1" d="M160,74v164" />
  <path
    id="garden"
    class="st0"
    d="M219.4,159.8c0,16.2,13.1,29.4,29.4,29.4c16.2,0,29.4-13.1,29.4-29.4c0-16.2-13.1-29.4-29.4-29.4	v-17.6h-46.9v46.9L219.4,159.8L219.4,159.8z" />
  <path
    id="hall"
    class="st0"
    d="M100.6,132.2c0-16.2-13.1-29.4-29.4-29.4c-16.2,0-29.4,13.1-29.4,29.4c0,16.2,13.1,29.4,29.4,29.4	v17.6h46.9v-46.9L100.6,132.2L100.6,132.2z" />
  <path id="stage" class="st0" d="M160,161l35,60h-70L160,161z" />
  <path id="sound" class="st2" d="M177.6,128.6h-35.2V93.4h35.2V128.6z" />
  <path id="lobby" class="st0" d="M177.6,128.6h-35.2V93.4h35.2V128.6z" />
</svg>
