<svg
  xmlns="http://www.w3.org/2000/svg"
  width="320"
  height="320"
  viewBox="0 0 320 320">
  <g id="content">
    <g id="gantt" display="none">
      <path
        id="bar_5"
        d="M175.8,228h-120v-18.3h120V228z"
        display="inline"
        fill="none"
        stroke="#66FFE5"
        stroke-width="2"
        stroke-linecap="square"
        stroke-miterlimit="10" />
      <path
        id="bar_4"
        d="M264.2,198h-140v-18.3h140V198z"
        display="inline"
        fill="none"
        stroke="#66FFE5"
        stroke-width="2"
        stroke-linecap="square"
        stroke-miterlimit="10" />
      <path
        id="bar_3"
        d="M209.9,168h-140v-18.3h140V168z"
        display="inline"
        fill="none"
        stroke="#66FFE5"
        stroke-width="2"
        stroke-linecap="square"
        stroke-miterlimit="10" />
      <path
        id="bar_2"
        d="M264.2,139.2h-160v-18.3h160V139.2z"
        display="inline"
        fill="none"
        stroke="#66FFE5"
        stroke-width="2"
        stroke-linecap="square"
        stroke-miterlimit="10" />
      <path
        id="bar_1"
        d="M145.8,110.4h-90V92h90V110.4z"
        display="inline"
        fill="none"
        stroke="#66FFE5"
        stroke-width="2"
        stroke-linecap="square"
        stroke-miterlimit="10" />
    </g>
    <g id="map">
      <path
        id="hall"
        d="M100.2,123.8 c0-16.2-13.1-29.4-29.4-29.4s-29.3,13.2-29.3,29.4s13.1,29.4,29.4,29.4v17.6h46.9V124h-17.6V123.8z"
        fill="none"
        stroke="#66FFE5"
        stroke-width="2"
        stroke-miterlimit="10" />
      <path
        id="garden"
        d="M212.5,145.4 c0,16.2,13.1,29.4,29.4,29.4c16.2,0,29.4-13.1,29.4-29.4c0-16.2-13.1-29.4-29.4-29.4V98.4H195v46.9L212.5,145.4L212.5,145.4z"
        fill="none"
        stroke="#66FFE5"
        stroke-width="2"
        stroke-miterlimit="10" />
      <path
        id="corridor"
        d="M209.5,224.6v-35.2h35.2v35.2H209.5z"
        fill="none"
        stroke="#66FFE5"
        stroke-width="2"
        stroke-miterlimit="10" />
      <path
        id="sound"
        d="M139.7,123.7V88.4h35.2v35.2C174.9,123.6,139.7,123.6,139.7,123.7z"
        fill="#66FFE5" />
      <path
        id="lobby"
        d="M139.7,123.7V88.4h35.2v35.2 C174.9,123.6,139.7,123.6,139.7,123.7z"
        fill="none"
        stroke="#66FFE5"
        stroke-width="2"
        stroke-miterlimit="10" />
      <path
        id="stage"
        d="M157.3,147.1l35,60h-70L157.3,147.1z"
        fill="none"
        stroke="#66FFE5"
        stroke-width="2"
        stroke-miterlimit="10" />
    </g>
    <path
      id="marker"
      d="M157,77.5v165"
      display="none"
      fill="none"
      stroke="#66FFE5"
      stroke-width="2"
      stroke-linecap="square"
      stroke-miterlimit="10" />
  </g>
  <g id="guides" display="none" opacity="0.5">
    <path id="title" d="M0,133h320v28H0V133z" display="inline" fill="#FF00FF" />
  </g>
</svg>
