<?xml version="1.0" encoding="utf-8"?>
<!-- Generator: Adobe Illustrator 27.3.1, SVG Export Plug-In . SVG Version: 6.00 Build 0)  -->
<svg version="1.1" id="Layer_1" xmlns="http://www.w3.org/2000/svg" xmlns:xlink="http://www.w3.org/1999/xlink" x="0px" y="0px"
	 width="320px" height="320px" viewBox="0 0 320 320" style="enable-background:new 0 0 320 320;" xml:space="preserve">
<g id="content">
	<path id="main_7" style="opacity:0;fill:#FFE666;" d="M212.8,223.5h-64v-14h64V223.5z"/>
	<path id="main_6" style="opacity:0;fill:#FFE666;" d="M202.8,204.7h-54v-14h54V204.7z"/>
	<path id="main_5" style="opacity:0;fill:#FFE666;" d="M224.8,186h-76v-14h76V186z"/>
	<path id="main_4" style="opacity:0;fill:#FFE666;" d="M188.8,167.2h-40v-14h40V167.2z"/>
	<path id="main_3" style="opacity:0;fill:#FFE666;" d="M212.8,148.5h-64v-14h64V148.5z"/>
	<path id="main_2" style="opacity:0;fill:#FFE666;" d="M202.8,129.7h-54v-14h54V129.7z"/>
	<path id="main_1" style="opacity:0;fill:#FFE666;" d="M224.8,111h-76V97h76V111z"/>
	<path id="main" style="fill:none;stroke:#FFE666;stroke-width:2;stroke-linecap:square;stroke-miterlimit:10;" d="M264.2,228H143.8
		V92h120.3v136H264.2L264.2,228z"/>
	<path id="left_fill_5" style="opacity:0;fill:#FFE666;" d="M131.8,228h-76v-18.3h76V228z"/>
	<path id="left_fill_4" style="opacity:0;fill:#FFE666;" d="M131.8,198h-76v-18.3h76V198z"/>
	<path id="left_fill_3" style="opacity:0;fill:#FFE666;" d="M131.8,168h-76v-18.3h76V168z"/>
	<path id="left_fill_2" style="opacity:0;fill:#FFE666;" d="M131.8,139.2h-76v-18.3h76V139.2z"/>
	<path id="left_fill_1" style="opacity:0;fill:#FFE666;" d="M131.8,110.4h-76V92h76V110.4z"/>
	<path id="left_5" style="fill:none;stroke:#FFE666;stroke-width:2;stroke-linecap:square;stroke-miterlimit:10;" d="M131.8,228h-76
		v-18.3h76V228z"/>
	<path id="left_4" style="fill:none;stroke:#FFE666;stroke-width:2;stroke-linecap:square;stroke-miterlimit:10;" d="M131.8,198h-76
		v-18.3h76V198z"/>
	<path id="left_3" style="fill:none;stroke:#FFE666;stroke-width:2;stroke-linecap:square;stroke-miterlimit:10;" d="M131.8,168h-76
		v-18.3h76V168z"/>
	<path id="left_2" style="fill:none;stroke:#FFE666;stroke-width:2;stroke-linecap:square;stroke-miterlimit:10;" d="M131.8,139.2
		h-76v-18.3h76V139.2z"/>
	<path id="left_1" style="fill:none;stroke:#FFE666;stroke-width:2;stroke-linecap:square;stroke-miterlimit:10;" d="M131.8,110.4
		h-76V92h76V110.4z"/>
	<path id="cursor" style="fill:#FFE666;" d="M208,155.3h-0.1c-0.1,0-0.2-0.1-0.2-0.2l-2.2-5.2l-2.8,2.6c-0.1,0.1-0.3,0.1-0.4,0.1
		c-0.1-0.1-0.2-0.2-0.2-0.4v-12.7c0-0.2,0.1-0.3,0.2-0.4c0.1-0.1,0.3,0,0.4,0.1l9.2,8.6c0.1,0.1,0.2,0.3,0.1,0.4
		c0,0.1-0.2,0.2-0.3,0.3l-3.9,0.3l2.3,5.1c0,0.1,0,0.2,0,0.3s-0.1,0.2-0.2,0.2l-1.7,0.8C208.1,155.3,208.1,155.3,208,155.3z"/>
</g>
<g id="guides" style="opacity:0.5;">
	<path id="title" style="fill:#FF00FF;" d="M0,133h320v28H0V133z"/>
</g>
</svg>
