<svg
  xmlns="http://www.w3.org/2000/svg"
  width="320"
  height="320"
  viewBox="0 0 320 320">
  <path id="main_4" d="M188.8,172.8h-40v-14h40V172.8z" opacity="0" />
  <path id="main_3" d="M212.8,154.8h-64v-14h64V154.8z" opacity="0" />
  <path id="main_2" d="M202.8,136.8h-54v-14h54V136.8z" opacity="0" />
  <path id="main_1" d="M224.8,118.8h-76v-14h76V118.8z" opacity="0" />
  <path
    id="main"
    d="M264.2,220.2H143.8V99.8h120.3v120.4L264.2,220.2L264.2,220.2z"
    fill="none"
    stroke="#000000"
    stroke-width="2"
    stroke-linecap="round"
    stroke-linejoin="round"
    stroke-miterlimit="10" />
  <path
    id="left_3"
    d="M131.8,175.8h-76v-18.3h76V175.8z"
    fill="none"
    stroke="#000000"
    stroke-width="2"
    stroke-linecap="round"
    stroke-linejoin="round"
    stroke-miterlimit="10" />
  <path
    id="left_2"
    d="M131.8,147h-76v-18.3h76V147z"
    fill="none"
    stroke="#000000"
    stroke-width="2"
    stroke-linecap="round"
    stroke-linejoin="round"
    stroke-miterlimit="10" />
  <path
    id="left_1"
    d="M131.8,118.2h-76V99.8h76V118.2z"
    fill="none"
    stroke="#000000"
    stroke-width="2"
    stroke-linecap="round"
    stroke-linejoin="round"
    stroke-miterlimit="10" />
  <path
    id="cursor"
    d="M208,168.1c0,0-0.1,0-0.1,0c-0.1,0-0.2-0.1-0.2-0.2	l-2.2-5.2l-2.8,2.6c-0.1,0.1-0.3,0.1-0.4,0.1c-0.1-0.1-0.2-0.2-0.2-0.4v-12.7c0-0.2,0.1-0.3,0.2-0.4c0.1-0.1,0.3,0,0.4,0.1l9.2,8.6	c0.1,0.1,0.2,0.3,0.1,0.4c0,0.1-0.2,0.2-0.3,0.3l-3.9,0.3l2.3,5.1c0,0.1,0,0.2,0,0.3s-0.1,0.2-0.2,0.2l-1.7,0.8	C208.1,168.1,208.1,168.1,208,168.1z" />
</svg>
